Patient4_TMGait_0pt4_03_right_42_EMG.mot
version=1
nRows=13
nColumns=33
inDegrees=no
endheader
time	1LAddLong	2LGlutMax	3LGlutMed	4LIliopsoas	5LSemiMemb	6LBicFemLong	7LRecFem	8LVastMed	9LVastLat	10LGasMed	11LTibAnt	12lTibPost	13LPeroneusLong	14LSol	15LExtDigLong	16LFlexDigLong	17RAddLong	18RGlutMax	19RGlutMed	20RIliopsoas	21RSemiMemb	22RBicFemLong	23RRecFem	24RVastMed	25RVastLat	26RGasMed	27RTibAnt	28RTibPost	29RPeroneusLong	30RSol	31RExtDigLong	32RFlexDigLong
54.99	-0.020142	0.09201	-0.056305	0.003204	0.03067	-0.028381	-0.003662	0.006714	0.045471	0.027771	-0.037537	-0.005646	0.090332	-0.056	0.02182	-0.00473	0.020752	-0.10757	0.23361	0.00473	0.024414	-0.034637	0.019684	-0.092621	0.010986	0.003815	0.31967	-0.006866	-0.090332	-0.021057	0.000763	-0.004578
54.991	0.011597	0.05127	0.018158	-0.00351	0.04364	-0.023041	0.014038	-0.005798	0.027771	0.012665	-0.066223	0.008545	0.56564	-0.020752	0.018311	0.011292	0.033264	-0.11292	0.35111	0.057831	0.026093	-0.003662	0.05661	-0.076904	0.020599	0.003204	-0.029755	-0.004578	-0.013885	0.007935	-0.001373	-0.003052
54.992	0.001678	0.051727	0.019073	-0.017548	0.016174	0.002136	0.015564	0.005951	0.027618	-0.043945	-0.04776	0.002594	0.80841	0.13229	-0.023041	0.012054	0.039978	-0.15289	0.159	0.10193	0.031128	0.018921	0.060883	-0.064087	0.002136	0.001984	0.03891	0.007782	0.042572	0.013733	-0.000305	-0.010834
54.993	0.000153	0.056763	0.14771	-0.006409	0.006866	0.007019	0.00412	0.000458	0.031128	-0.07431	0.10651	0.002441	0.50858	0.19531	0.042114	-0.006104	0.036469	-0.11536	0.23773	0.005341	0.023499	0.040436	0.047302	-0.039673	-0.007935	-0.001373	0.052948	-0.005798	0.023499	0.050812	0	-0.004272
54.994	0.014343	0.11627	0.15091	-0.013885	0.002441	0	-0.029449	0.007019	-0.010681	-0.16739	0.11993	0.006104	-0.000763	0.19272	0.18036	0.007477	0.054779	-0.13001	-0.082855	0.003815	0.027924	0.046234	0.054779	-0.094299	0.005493	-0.002136	0.056763	-0.005493	-0.041809	0.050354	-0.00061	-0.001373
54.995	-0.001831	0.045319	0.1149	-0.001526	-0.015411	0.026703	-0.01358	0.000153	-0.016479	-0.18005	0.040436	0.005951	-0.30441	0.04776	0.045319	0.004883	0.075684	-0.12909	-0.2655	0.059967	0.016174	0.06424	0.040894	-0.014801	-0.010681	-0.000763	0.14557	-0.009613	-0.39459	0.000763	-0.003204	-0.007172
54.996	0.013885	0.022278	-0.084686	0.003052	0.027008	0.018768	-0.002594	0.010223	-0.13504	0.038605	0.016479	-0.000153	-0.87494	-0.070648	-0.005188	0.001678	0.054016	-0.16235	-0.76691	0.087891	0.007629	0.066986	-0.018463	-0.062561	-0.015411	-0.006409	0.020905	-0.00473	-0.42007	-0.00885	-0.001678	0.000916
54.997	0.008545	0.03006	-0.067749	0.005035	0.001984	0.010071	0.015411	-0.003662	-0.081177	0.16876	-0.013885	-0.002899	-0.3923	0.06958	-0.12741	-0.069733	0.015259	-0.07782	-0.73868	0.15259	0.009003	0.077667	-0.001221	-0.063782	-0.004272	0.002747	-0.11505	-0.004578	-0.072632	-0.02655	0.00351	0.009918
54.998	0.009766	0.017853	0.044708	0.005951	0.007019	-0.037689	0.005493	-0.004883	-0.017853	0.30289	-0.010986	0.000305	-0.25497	0.13245	-0.14481	-0.028992	-0.006561	-0.034332	-0.83481	0.11612	0.007782	0.10651	0.057678	-0.092926	-0.02121	0.000916	0.059509	-0.007324	0.42893	-0.029755	-0.001221	-0.002289
54.999	0.016174	0.044403	0.057068	0.007324	0.025635	-0.001831	0.009766	0.00061	0.049286	0.32669	0.035553	-0.001984	-0.34821	0.073853	-0.13107	0.02243	-0.009003	-0.019226	-0.41794	-0.03479	0.00824	0.13825	0.063934	-0.068207	-0.015411	-0.003662	0.35416	-0.00412	0.45761	-0.036926	0.004272	-0.009766
55	0.014648	0.049896	0.005035	0.009918	0.005493	0.010071	-0.006561	-0.008087	0.14008	-0.005493	-0.014954	-0.006256	-0.10376	-0.085144	-0.10361	-0.14938	0.005493	-0.046387	1.3449	-0.11093	0.00824	0.13779	0.052643	-0.10391	-0.019531	-0.001526	0.44952	-0.007324	0.08667	-0.089722	-0.002136	-0.008392
55.001	0.01297	0.0177	-0.078278	0.011139	-0.003052	0.005646	0.002594	0.003052	0.069885	-0.47226	-0.02182	0.001984	0.09613	-0.24704	-0.0354	0.2861	0.033569	-0.13733	1.0629	-0.10239	0.002899	0.14236	0.035248	-0.063782	-0.010986	0.004272	0.24063	-0.007629	0.008087	-0.10208	-0.002136	-0.001678
55.002	0.007935	0.00351	-0.054626	0.00473	0.011597	-0.003357	-0.010681	0.003204	0.033417	-0.30136	-0.027008	0.001984	0.1503	-0.24078	0.040894	0.26871	0.023804	-0.20477	0.4422	-0.022736	-0.006104	0.1535	0.005646	-0.044556	-0.014038	0.007477	-0.26596	-0.000763	0.07431	-0.077362	-0.000305	-0.000458
